<svg width="226" height="44" viewBox="0 0 226 44" fill="none" xmlns="http://www.w3.org/2000/svg">
<g clip-path="url(#clip0_129_284)">
<path d="M21.1839 27.6015C20.126 29.1365 18.7091 30.3885 17.0571 31.2479C15.4052 32.1073 13.5684 32.5479 11.7074 32.5314C10.1167 32.5505 8.54023 32.2284 7.08374 31.5869C5.62725 30.9453 4.32436 29.9991 3.26237 28.8115C1.16413 26.4338 0.00585938 23.3687 0.00585938 20.1939C0.00585938 17.0192 1.16413 13.9541 3.26237 11.5763C4.32436 10.3888 5.62725 9.44253 7.08374 8.80097C8.54023 8.1594 10.1167 7.83735 11.7074 7.85639C13.5684 7.83988 15.4052 8.28057 17.0571 9.13997C18.7091 9.99936 20.126 11.2513 21.1839 12.7864C21.5724 13.3545 21.7243 14.0522 21.6072 14.731C21.4901 15.4097 21.1134 16.0158 20.5572 16.4201C20.2759 16.6161 19.9586 16.7542 19.6237 16.8263C19.2888 16.8985 18.9429 16.9033 18.6062 16.8406C18.2694 16.7778 17.9484 16.6486 17.6618 16.4606C17.3751 16.2725 17.1286 16.0293 16.9363 15.7451C16.348 14.9051 15.5644 14.2216 14.6533 13.7536C13.7422 13.2856 12.7311 13.0473 11.7074 13.0593C7.95407 13.0593 5.2286 16.0611 5.2286 20.1831C5.2286 24.3052 7.95407 27.3645 11.7074 27.3645C12.7314 27.376 13.7427 27.1371 14.6539 26.6685C15.565 26.1999 16.3484 25.5157 16.9363 24.6751C17.1252 24.3873 17.3693 24.1401 17.6544 23.948C17.9396 23.7559 18.2601 23.6227 18.5972 23.5562C18.9343 23.4897 19.2813 23.4911 19.6178 23.5606C19.9543 23.63 20.2737 23.766 20.5572 23.9605C21.1169 24.3638 21.4962 24.9714 21.6135 25.6524C21.7307 26.3334 21.5764 27.0334 21.1839 27.6015Z" fill="#535A57"/>
<path d="M75.5759 10.6751V31.86C75.577 34.552 74.6853 37.1679 73.0412 39.2962C71.3971 41.4246 69.0939 42.9444 66.4939 43.6168C63.894 44.2891 61.1448 44.0757 58.679 43.0102C56.2133 41.9446 54.1708 40.0874 52.8731 37.7307C52.5406 37.1246 52.462 36.4109 52.6544 35.7466C52.8468 35.0823 53.2946 34.5218 53.8992 34.1885C54.5038 33.8552 55.2157 33.7764 55.8782 33.9693C56.5408 34.1622 57.0998 34.6111 57.4323 35.2172C58.1848 36.5437 59.3522 37.5848 60.754 38.1795C62.1558 38.7741 63.7139 38.8893 65.1875 38.5072C66.6612 38.1251 67.9682 37.2669 68.9066 36.0654C69.845 34.8639 70.3626 33.3859 70.3792 31.86V30.7828C68.4514 32.0834 66.1775 32.7716 63.8538 32.7576C62.2562 32.7773 60.6726 32.4558 59.2085 31.8144C57.7444 31.173 56.4332 30.2265 55.3622 29.0377C53.2324 26.6815 52.0795 23.5994 52.1389 20.4201C52.1389 17.1024 53.2563 14.0108 55.3622 11.7702C56.4332 10.5815 57.7444 9.63493 59.2085 8.99354C60.6726 8.35215 62.2562 8.0306 63.8538 8.05028C66.197 8.03763 68.4883 8.74158 70.4222 10.0682C70.5524 9.42691 70.9181 8.85801 71.4469 8.47425C71.9757 8.0905 72.6289 7.91988 73.2773 7.99622C73.9256 8.07256 74.5217 8.39028 74.9474 8.88642C75.3731 9.38257 75.5975 10.0209 75.5759 10.6751ZM70.3792 20.4345C70.3792 16.2657 67.6072 13.2532 63.8538 13.2532C60.1005 13.2532 57.3284 16.255 57.3284 20.4345C57.3284 24.614 60.0682 27.5512 63.8681 27.5512C67.6681 27.5512 70.3792 24.5566 70.3792 20.4345Z" fill="#535A57"/>
<path d="M99.5754 18.5529V29.9318C99.5754 30.6269 99.2999 31.2937 98.8096 31.7852C98.3193 32.2768 97.6543 32.5529 96.9609 32.5529C96.2675 32.5529 95.6025 32.2768 95.1122 31.7852C94.6219 31.2937 94.3465 30.6269 94.3465 29.9318V18.5529C94.3465 15.9066 92.8745 13.0413 89.5652 13.0413C86.5712 13.0413 84.3363 15.4147 84.3363 18.5529V29.9318C84.3363 30.6212 84.0631 31.2825 83.5769 31.77C83.0906 32.2575 82.4311 32.5314 81.7434 32.5314C81.0557 32.5314 80.3961 32.2575 79.9099 31.77C79.4236 31.2825 79.1504 30.6212 79.1504 29.9318V10.4416C79.1524 9.84757 79.3567 9.27199 79.7295 8.81024C80.1024 8.34849 80.6213 8.02826 81.2005 7.90258C81.7796 7.7769 82.3842 7.85332 82.9141 8.11917C83.444 8.38502 83.8674 8.82437 84.1143 9.36444C85.7518 8.35189 87.6414 7.82411 89.5652 7.84199C95.2418 7.84199 99.5754 12.4704 99.5754 18.5529Z" fill="#535A57"/>
<path d="M115.441 32.6679C113.005 32.6643 110.624 31.9365 108.601 30.5764C106.577 29.2162 105.001 27.285 104.073 25.0268C103.144 22.7687 102.904 20.2852 103.383 17.8903C103.863 15.4955 105.04 13.297 106.765 11.5728C108.491 9.8487 110.688 8.6764 113.078 8.20423C115.469 7.73206 117.945 7.98123 120.194 8.92023C122.443 9.85922 124.364 11.4459 125.713 13.4794C127.063 15.513 127.781 17.9022 127.776 20.3447C127.773 21.966 127.452 23.5709 126.831 25.0678C126.21 26.5646 125.301 27.9241 124.155 29.0685C123.01 30.2129 121.651 31.1198 120.155 31.7374C118.66 32.355 117.058 32.6712 115.441 32.6679ZM115.441 13.1742C114.031 13.1692 112.651 13.5835 111.476 14.3646C110.301 15.1457 109.383 16.2585 108.839 17.5625C108.294 18.8665 108.148 20.303 108.417 21.6906C108.687 23.0781 109.361 24.3543 110.354 25.3579C111.347 26.3615 112.614 27.0474 113.996 27.329C115.378 27.6105 116.812 27.475 118.117 26.9396C119.422 26.4042 120.539 25.493 121.328 24.321C122.116 23.1491 122.54 21.7691 122.547 20.3555C122.551 18.461 121.805 16.6424 120.472 15.2987C119.14 13.9551 117.331 13.1961 115.441 13.1885V13.1742Z" fill="#535A57"/>
<path d="M134.168 32.5314C133.48 32.5314 132.821 32.2575 132.335 31.77C131.848 31.2824 131.575 30.6212 131.575 29.9317V3.67321C131.576 2.98436 131.85 2.32406 132.336 1.83731C132.822 1.35056 133.481 1.07715 134.168 1.07715C134.86 1.07612 135.524 1.34783 136.017 1.83358C136.51 2.31934 136.793 2.98013 136.804 3.67321V29.9317C136.794 30.6254 136.511 31.2871 136.018 31.7737C135.525 32.2602 134.86 32.5324 134.168 32.5314Z" fill="#535A57"/>
<path d="M152.892 32.6679C150.456 32.6643 148.076 31.9365 146.052 30.5764C144.028 29.2162 142.452 27.285 141.524 25.0268C140.595 22.7687 140.355 20.2852 140.834 17.8903C141.314 15.4955 142.491 13.297 144.216 11.5728C145.942 9.8487 148.139 8.6764 150.529 8.20423C152.92 7.73206 155.396 7.98123 157.645 8.92023C159.894 9.85922 161.815 11.4459 163.165 13.4794C164.514 15.513 165.232 17.9022 165.227 20.3447C165.224 21.9659 164.903 23.5706 164.281 25.0672C163.66 26.5639 162.751 27.9231 161.605 29.0675C160.46 30.2118 159.101 31.1187 157.606 31.7365C156.111 32.3542 154.509 32.6707 152.892 32.6679ZM152.892 13.1742C151.482 13.1692 150.103 13.5835 148.927 14.3646C147.752 15.1457 146.834 16.2585 146.29 17.5625C145.745 18.8665 145.599 20.303 145.868 21.6906C146.138 23.0781 146.812 24.3543 147.805 25.3579C148.798 26.3615 150.066 27.0474 151.447 27.329C152.829 27.6105 154.263 27.475 155.568 26.9396C156.873 26.4042 157.99 25.493 158.779 24.321C159.567 23.1491 159.992 21.7691 159.998 20.3555C160.002 18.461 159.256 16.6424 157.924 15.2987C156.591 13.9551 154.782 13.1961 152.892 13.1885V13.1742Z" fill="#535A57"/>
<path d="M192.223 10.6751V31.86C192.226 34.5532 191.335 37.1707 189.69 39.3004C188.046 41.43 185.742 42.9509 183.141 43.6234C180.54 44.2959 177.789 44.0819 175.323 43.0151C172.856 41.9483 170.814 40.0892 169.517 37.7307C169.184 37.1246 169.106 36.4109 169.298 35.7466C169.491 35.0823 169.938 34.5218 170.543 34.1885C171.148 33.8552 171.859 33.7764 172.522 33.9693C173.185 34.1622 173.744 34.6111 174.076 35.2172C174.825 36.5511 175.994 37.5993 177.399 38.1988C178.804 38.7983 180.367 38.9155 181.845 38.5321C183.324 38.1488 184.634 37.2864 185.573 36.0791C186.512 34.8718 187.027 33.3873 187.037 31.8564V30.7792C185.11 32.0808 182.836 32.7691 180.512 32.7541C178.914 32.773 177.331 32.4512 175.867 31.8098C174.403 31.1685 173.092 30.2223 172.02 29.0341C169.892 26.6772 168.739 23.5955 168.797 20.4165C168.797 17.0988 169.914 14.0072 172.02 11.7666C173.092 10.5784 174.403 9.63225 175.867 8.99091C177.331 8.34956 178.914 8.0277 180.512 8.04669C182.856 8.03399 185.149 8.73792 187.084 10.0646C187.229 9.44165 187.597 8.89369 188.118 8.52479C188.639 8.1559 189.278 7.99174 189.912 8.0635C190.546 8.13526 191.131 8.43794 191.557 8.91407C191.984 9.3902 192.22 10.0066 192.223 10.6463V10.6751ZM187.037 20.4453C187.037 16.2765 184.265 13.2639 180.512 13.2639C176.759 13.2639 173.99 16.2657 173.99 20.4453C173.99 24.6248 176.716 27.5691 180.512 27.5691C184.308 27.5691 187.037 24.5566 187.037 20.4345V20.4453Z" fill="#535A57"/>
<path d="M196.023 2.64275C196.028 2.28571 196.104 1.93318 196.246 1.6059C196.388 1.27861 196.595 0.983172 196.853 0.736951C197.111 0.49073 197.415 0.298695 197.748 0.172141C198.081 0.045586 198.436 -0.0129375 198.792 1.4863e-05C199.152 -0.0230674 199.514 0.0282066 199.854 0.150663C200.194 0.27312 200.505 0.46416 200.769 0.711989C201.032 0.959819 201.242 1.25917 201.386 1.59156C201.529 1.92395 201.603 2.28233 201.603 2.64455C201.603 3.00676 201.529 3.36513 201.386 3.69752C201.242 4.02991 201.032 4.32926 200.769 4.57709C200.505 4.82492 200.194 5.01596 199.854 5.13842C199.514 5.26088 199.152 5.31215 198.792 5.28907C198.436 5.30202 198.08 5.24339 197.747 5.11661C197.414 4.98984 197.109 4.79748 196.851 4.55088C196.593 4.30428 196.387 4.00841 196.245 3.68071C196.103 3.35301 196.028 3.00009 196.023 2.64275ZM201.428 10.4417V29.9318C201.428 30.627 201.152 31.2937 200.662 31.7852C200.172 32.2768 199.507 32.553 198.813 32.553C198.12 32.553 197.455 32.2768 196.965 31.7852C196.474 31.2937 196.199 30.627 196.199 29.9318V10.4417C196.199 9.74649 196.474 9.07978 196.965 8.58821C197.455 8.09664 198.12 7.82048 198.813 7.82048C199.507 7.82048 200.172 8.09664 200.662 8.58821C201.152 9.07978 201.428 9.74649 201.428 10.4417Z" fill="#535A57"/>
<path d="M225.431 28.3195C225.731 28.7016 225.918 29.1602 225.971 29.6433C226.024 30.1264 225.941 30.6148 225.731 31.0531C225.522 31.4914 225.194 31.8622 224.785 32.1234C224.377 32.3847 223.903 32.526 223.418 32.5314C223.025 32.5241 222.639 32.4325 222.284 32.2628C221.929 32.0931 221.615 31.8492 221.362 31.5475L215.686 24.3662L210.056 31.5475C209.803 31.8492 209.489 32.0931 209.134 32.2628C208.78 32.4325 208.393 32.5241 208 32.5314C207.515 32.526 207.042 32.3847 206.633 32.1234C206.224 31.8622 205.896 31.4914 205.687 31.0531C205.478 30.6148 205.395 30.1264 205.448 29.6433C205.501 29.1602 205.688 28.7016 205.987 28.3195L212.38 20.1651L205.987 12.0538C205.775 11.7894 205.616 11.4855 205.521 11.1594C205.427 10.8333 205.397 10.4917 205.435 10.1541C205.472 9.81659 205.576 9.48988 205.741 9.19286C205.905 8.89584 206.126 8.6344 206.392 8.42364C206.933 7.99331 207.621 7.7945 208.307 7.87049C208.993 7.94648 209.622 8.29111 210.056 8.82938L215.686 16.0107L221.362 8.82938C221.796 8.29111 222.425 7.94648 223.111 7.87049C223.797 7.7945 224.486 7.99331 225.026 8.42364C225.292 8.63469 225.513 8.89625 225.677 9.19327C225.841 9.49029 225.944 9.8169 225.982 10.1543C226.02 10.4917 225.99 10.8332 225.896 11.1592C225.801 11.4852 225.643 11.7892 225.431 12.0538L219.038 20.1651L225.431 28.3195Z" fill="#535A57"/>
<path d="M36.2477 7.842C33.5895 7.8473 31.0045 8.71566 28.8798 10.317C26.755 11.9184 25.2048 14.1667 24.4611 16.7253C23.3867 19.2208 22.3123 19.1741 21.6354 19.1741C21.5028 19.1741 19.2895 19.2567 18.541 19.1741C17.4128 19.0413 16.8183 17.7953 16.8183 17.7953C16.3008 16.685 15.4211 15.7848 14.3245 15.2434C13.2278 14.702 11.9798 14.5518 10.7864 14.8175C9.59312 15.0833 8.52587 15.7491 7.76093 16.705C6.99599 17.6609 6.5791 18.8498 6.5791 20.0754C6.5791 21.3009 6.99599 22.4898 7.76093 23.4458C8.52587 24.4017 9.59312 25.0675 10.7864 25.3333C11.9798 25.599 13.2278 25.4488 14.3245 24.9074C15.4211 24.366 16.3008 23.4658 16.8183 22.3555C16.9427 22.0337 17.145 21.7481 17.407 21.5243C17.6689 21.3005 17.9824 21.1456 18.3189 21.0736C18.3189 21.0736 20.3604 21.0305 22.5021 21.0305C23.2184 21.0305 23.82 21.903 24.2462 22.8618C24.4272 23.6633 24.6863 24.445 25.0198 25.1957L25.0449 25.307V25.246C25.9568 27.268 27.3957 29.0061 29.21 30.2773C31.0243 31.5485 33.1469 32.3057 35.3543 32.4691C37.5618 32.6326 39.7723 32.1963 41.7532 31.2062C43.7341 30.2161 45.4121 28.7088 46.6105 26.843C47.8088 24.9772 48.4832 22.822 48.5626 20.6043C48.642 18.3866 48.1235 16.1884 47.0617 14.2413C45.9999 12.2942 44.434 10.6701 42.529 9.54016C40.624 8.41019 38.4503 7.8161 36.2369 7.82046L36.2477 7.842ZM36.2477 27.3357C34.8354 27.3407 33.4534 26.9251 32.277 26.1416C31.1006 25.3582 30.1828 24.2421 29.6399 22.935C29.097 21.6279 28.9534 20.1885 29.2275 18.7995C29.5015 17.4105 30.1808 16.1344 31.1792 15.1329C32.1776 14.1314 33.4501 13.4498 34.8354 13.1743C36.2207 12.8989 37.6564 13.0421 38.9605 13.5857C40.2645 14.1294 41.3782 15.049 42.1602 16.228C42.9423 17.407 43.3575 18.7923 43.3532 20.2082C43.3485 22.0965 42.5985 23.9061 41.2671 25.2416C39.9356 26.5772 38.1311 27.33 36.2477 27.3357Z" fill="url(#paint0_linear_129_284)"/>
</g>
<defs>
<linearGradient id="paint0_linear_129_284" x1="6.12412" y1="33.5476" x2="42.4625" y2="14.4827" gradientUnits="userSpaceOnUse">
<stop stop-color="#FBCF32"/>
<stop offset="1" stop-color="#F05757"/>
</linearGradient>
<clipPath id="clip0_129_284">
<rect width="226" height="44" fill="white"/>
</clipPath>
</defs>
</svg>
